<svg xmlns="http://www.w3.org/2000/svg" viewBox="0 0 2048 2048" role="img" aria-label="C: logo">
  <circle cx="1024" cy="1024" r="972" fill="#050505"/>
  <g fill="#fff" transform="translate(1024 1024) scale(1.36) translate(-1024 -1024)">
    <path d="M1109.4 929.3c-22.6-20.4-52.5-32.8-85.4-32.8-70.4 0-127.5 57.1-127.5 127.5s57.1 127.5 127.5 127.5 63.1-12.5 85.7-33.2c.5-.4 1-.9 1.4-1.4 22.6-20.6 52.7-33.1 85.7-33.1s63.1 12.5 85.7 33.1c.5.5 1 1 1.5 1.4 22.6 20.6 52.8 33.2 85.7 33.2 70.4 0 127.5-57.1 127.5-127.5s-57.1-127.5-127.5-127.5-62.8 12.4-85.4 32.8c-.7.6-1.5 1.3-2.2 2-22.6 20.4-52.5 32.8-85.3 32.8s-62.7-12.4-85.3-32.8c-.7-.7-1.5-1.4-2.2-2Z"/>
    <path d="M1024 1497.3c70.4 0 127.5-57.1 127.5-127.5s-57.1-127.5-127.5-127.5c-120.4 0-218.3-97.9-218.3-218.3S903.6 805.7 1024 805.7c70.4 0 127.5-57.1 127.5-127.5S1094.4 550.7 1024 550.7c-261.4 0-473.3 211.9-473.3 473.3s211.9 473.3 473.3 473.3Z"/>
    <circle cx="1369.8" cy="1369.8" r="127.5"/>
  </g>
</svg>
